<svg width="1037" height="187" viewBox="0 0 1037 187" fill="none" xmlns="http://www.w3.org/2000/svg">
<g clip-path="url(#clip0_6849_5548)">
<path d="M85.6 58.4C94 67 98.2 78 98.2 91V148.6H82.8V89.4C82.8 80.8 77.8 60.6 53.6 60.6C28.6 60.6 24 80.8 24 89.2V148.6H9V46.8H24V56.8C30.2 49.6 41 45.2 53.6 45.2C66.4 45.2 77.2 49.6 85.6 58.4ZM204.422 62C214.222 72.2 219.022 84.4 219.022 98.4C219.022 112.8 213.822 125 203.222 135.6C192.822 146 180.422 151 166.022 150.4C152.222 150.2 140.422 144.8 130.822 134.8C121.222 124.6 116.422 112.6 116.422 98.6C116.422 84 121.422 71.4 131.822 61C142.222 50.6 154.622 45.6 169.022 46C183.022 46.6 194.822 51.8 204.422 62ZM193.222 125C200.622 117 204.222 107.8 204.022 97.4C203.622 87.2 200.022 78.6 193.222 71.4C186.222 64.2 178.022 60.8 168.222 60.8C158.022 60.6 149.422 64.2 142.222 71.4C135.022 78.6 131.422 87.4 131.222 97.6C131.022 107.6 134.422 116.4 141.222 124C148.022 131.6 156.422 135.6 166.222 135.8C176.822 136.4 185.822 132.8 193.222 125ZM311.125 46.8H326.325V148.6H311.325V138.6C305.125 145.6 294.125 150.2 281.725 150.2C268.725 150.2 258.125 145.8 249.725 137C241.325 128.4 237.125 117.4 237.125 104.4V46.8H252.525V106C252.525 114.6 257.525 134.8 281.725 134.8C306.725 134.8 311.125 114.6 311.125 106.2V46.8ZM421.147 58.4C429.547 67 433.747 78 433.747 91V148.6H418.347V89.4C418.347 80.8 413.347 60.6 389.147 60.6C364.147 60.6 359.547 80.8 359.547 89.2V148.6H344.547V46.8H359.547V56.8C365.747 49.6 376.547 45.2 389.147 45.2C401.947 45.2 412.747 49.6 421.147 58.4ZM539.969 62C549.769 72.2 554.569 84.4 554.569 98.4C554.569 112.8 549.369 125 538.769 135.6C528.369 146 515.969 151 501.569 150.4C487.769 150.2 475.969 144.8 466.369 134.8C456.769 124.6 451.969 112.6 451.969 98.6C451.969 84 456.969 71.4 467.369 61C477.769 50.6 490.169 45.6 504.569 46C518.569 46.6 530.369 51.8 539.969 62ZM528.769 125C536.169 117 539.769 107.8 539.569 97.4C539.169 87.2 535.569 78.6 528.769 71.4C521.769 64.2 513.569 60.8 503.769 60.8C493.569 60.6 484.969 64.2 477.769 71.4C470.569 78.6 466.969 87.4 466.769 97.6C466.569 107.6 469.969 116.4 476.769 124C483.569 131.6 491.969 135.6 501.769 135.8C512.369 136.4 521.369 132.8 528.769 125ZM646.672 46.8H661.872V148.6H646.872V138.6C640.672 145.6 629.672 150.2 617.272 150.2C604.272 150.2 593.672 145.8 585.272 137C576.872 128.4 572.672 117.4 572.672 104.4V46.8H588.072V106C588.072 114.6 593.072 134.8 617.272 134.8C642.272 134.8 646.672 114.6 646.672 106.2V46.8Z" fill="#E84D67"/>
<path d="M704.694 102.6H680.094V89H704.694V102.6ZM760.067 45.6V59.2H737.867V116C737.867 131.2 745.867 135.2 760.067 135.2V150.2C735.267 150.2 722.867 139.6 722.867 118.4V9.99999H737.867V45.6H760.067ZM865.736 98.4C867.736 98.4 869.136 100 869.136 101.8C869.136 109.2 866.136 114.4 860.336 117.2C854.736 120 847.536 120.4 842.536 120.4C837.736 120.4 830.536 120 824.936 117.2C819.136 114.4 816.136 109.2 816.136 101.8C816.136 100 817.536 98.4 819.536 98.4C821.336 98.4 822.736 100 822.736 101.8C822.736 109.2 826.136 113.8 842.536 113.8C859.136 113.8 862.536 109.2 862.536 101.8C862.536 100 863.936 98.4 865.736 98.4ZM829.336 91.6C827.336 91.6 825.536 90 825.536 87.8V74.4C825.536 72.2 827.336 70.6 829.336 70.6C831.536 70.6 833.136 72.2 833.136 74.4V87.8C833.136 90 831.536 91.6 829.336 91.6ZM855.936 91.6C853.736 91.6 852.136 90 852.136 87.8V74.4C852.136 72.2 853.736 70.6 855.936 70.6C857.936 70.6 859.736 72.2 859.736 74.4V87.8C859.736 90 857.936 91.6 855.936 91.6ZM900.736 95.4C901.336 96 901.736 96.8 902.136 97.4C905.336 102.4 907.136 108.2 907.136 114.2C907.136 131.4 893.136 145.6 875.936 145.6C874.336 145.6 872.936 145.4 871.336 145.2C868.936 150.8 865.136 155.4 860.136 158.8C854.936 162.4 848.936 164.2 842.536 164.2C836.336 164.2 830.336 162.4 825.136 158.8C820.136 155.4 816.336 150.8 813.936 145.2C812.336 145.4 810.936 145.6 809.336 145.6C792.136 145.6 778.336 131.4 778.336 114.2C778.336 108.2 779.936 102.4 783.136 97.4C783.536 96.8 783.936 96 784.536 95.4C783.936 94.8 783.536 94.2 783.136 93.4C779.936 88.4 778.336 82.6 778.336 76.6C778.336 59.4 792.136 45.4 809.336 45.4C810.936 45.4 812.336 45.4 813.936 45.6C816.336 40.2 820.136 35.4 825.136 32C830.336 28.4 836.336 26.6 842.536 26.6C848.936 26.6 854.936 28.4 860.136 32C865.136 35.4 868.936 40.2 871.336 45.6C872.936 45.4 874.336 45.4 875.936 45.4C893.136 45.4 907.136 59.4 907.136 76.6C907.136 82.6 905.336 88.4 902.136 93.4C901.736 94.2 901.336 94.8 900.736 95.4ZM884.136 97.2C883.336 97 882.936 96.2 882.936 95.4C882.936 94.6 883.336 94 884.136 93.6C890.536 90.4 894.536 84 894.536 76.6C894.536 66.2 886.136 57.8 875.936 57.8C871.736 57.8 867.936 59.2 864.536 61.6C863.936 62.2 862.936 62.2 862.336 61.8C861.536 61.4 861.136 60.6 861.336 59.8C861.336 59.2 861.336 58.6 861.336 57.8C861.336 47.4 852.936 39 842.536 39C832.336 39 823.936 47.4 823.936 57.8C823.936 58.6 823.936 59.2 823.936 59.8C824.136 60.6 823.736 61.4 822.936 61.8C822.336 62.2 821.336 62.2 820.736 61.6C817.336 59.2 813.536 57.8 809.336 57.8C799.136 57.8 790.736 66.2 790.736 76.6C790.736 83.8 794.736 90.4 801.336 93.6C801.936 94 802.336 94.6 802.336 95.4C802.336 96.2 801.936 97 801.336 97.2C794.736 100.4 790.736 107 790.736 114.2C790.736 124.6 799.136 133 809.336 133C813.536 133 817.536 131.6 820.736 129.2C821.136 129 821.536 128.8 821.936 128.8C822.336 128.8 822.736 128.8 822.936 129C823.736 129.4 824.136 130.2 823.936 131C823.936 131.8 823.936 132.4 823.936 133C823.936 143.4 832.336 151.8 842.536 151.8C852.936 151.8 861.336 143.4 861.336 133C861.336 132.4 861.336 131.8 861.336 131C861.136 130.2 861.536 129.4 862.336 129C862.936 128.6 863.936 128.6 864.536 129.2C867.936 131.6 871.736 133 875.936 133C886.136 133 894.536 124.6 894.536 114.2C894.536 107 890.536 100.4 884.136 97.2ZM940.406 184.2H925.406V45.8H940.406V61.4C940.606 61.2 940.806 61 941.006 60.8C951.406 50.4 963.806 45.4 978.206 46C992.206 46.2 1003.81 51.6 1013.61 61.6C1023.21 71.8 1028.01 83.8 1028.01 97.8C1028.01 112.4 1022.81 125 1012.41 135.4C1002.01 145.8 989.606 150.8 975.206 150.4C961.606 149.8 950.006 144.8 940.406 135V184.2ZM951.206 71.4C950.806 71.8 950.606 72 950.406 72.2C944.006 79.4 940.406 88.6 940.406 98.2C940.406 107.8 944.006 117.2 950.406 124.2C950.606 124.4 950.806 124.8 951.206 125C958.006 132.2 966.406 135.6 976.006 135.6C986.206 135.8 995.006 132.2 1002.01 125C1009.21 117.8 1012.81 109 1013.01 98.8C1013.21 88.8 1010.01 80 1003.01 72.4C996.206 64.8 988.006 60.8 978.006 60.6C967.606 60 958.606 63.6 951.206 71.4Z" fill="#2DA3ED"/>
</g>
<defs>
<clipPath id="clip0_6849_5548">
<rect width="1037" height="187" fill="white"/>
</clipPath>
</defs>
</svg>
